<?xml version="1.0" encoding="UTF-8" standalone="no"?>
<!-- Generator: Adobe Illustrator 16.0.0, SVG Export Plug-In . SVG Version: 6.00 Build 0)  -->

<svg
   xmlns:dc="http://purl.org/dc/elements/1.1/"
   xmlns:cc="http://creativecommons.org/ns#"
   xmlns:rdf="http://www.w3.org/1999/02/22-rdf-syntax-ns#"
   xmlns:svg="http://www.w3.org/2000/svg"
   xmlns="http://www.w3.org/2000/svg"
   xmlns:sodipodi="http://sodipodi.sourceforge.net/DTD/sodipodi-0.dtd"
   xmlns:inkscape="http://www.inkscape.org/namespaces/inkscape"
   version="1.1"
   id="Layer_1"
   x="0px"
   y="0px"
   width="440.808px"
   height="135.679px"
   viewBox="0 0 440.808 135.679"
   enable-background="new 0 0 440.808 135.679"
   xml:space="preserve"
   inkscape:version="0.91 r13725"
   sodipodi:docname="logo-invert.svg"><metadata
     id="metadata23"><rdf:RDF><cc:Work
         rdf:about=""><dc:format>image/svg+xml</dc:format><dc:type
           rdf:resource="http://purl.org/dc/dcmitype/StillImage" /><dc:title></dc:title></cc:Work></rdf:RDF></metadata><defs
     id="defs21" /><sodipodi:namedview
     pagecolor="#ffffff"
     bordercolor="#666666"
     borderopacity="1"
     objecttolerance="10"
     gridtolerance="10"
     guidetolerance="10"
     inkscape:pageopacity="0"
     inkscape:pageshadow="2"
     inkscape:window-width="725"
     inkscape:window-height="480"
     id="namedview19"
     showgrid="false"
     inkscape:zoom="0.55579752"
     inkscape:cx="225.80166"
     inkscape:cy="67.8395"
     inkscape:window-x="867"
     inkscape:window-y="234"
     inkscape:window-maximized="0"
     inkscape:current-layer="Layer_1" /><g
     id="g3"
     style="stroke:#ffffff;stroke-opacity:1;fill:#000000;fill-opacity:1"><g
       id="g5"
       style="stroke:#ffffff;stroke-opacity:1;fill:#000000;fill-opacity:1"><path
         fill="#FFFFFF"
         d="M73.117,78.944H16.774c-0.265,3.88-0.394,6.776-0.394,8.679c0,14.211,2.219,24.885,6.662,32.02    c4.437,7.139,11.064,10.71,19.881,10.71c11.973,0,20.456-5.36,25.456-16.086h4.737c-2.107,6.71-6.283,11.957-12.529,15.739    c-6.254,3.783-13.062,5.673-20.426,5.673c-6.842,0-13.307-1.727-19.393-5.179c-6.08-3.457-11.064-8.338-14.947-14.652    C1.938,109.532,0,101.867,0,92.855c0-12.763,3.751-23.37,11.248-31.821c7.499-8.454,16.877-12.68,28.124-12.68    c10.589,0,18.776,3.223,24.57,9.671C69.729,64.471,72.785,71.443,73.117,78.944z M55.849,74.998    c0.194-1.517,0.298-2.864,0.298-4.053c0-5.781-1.695-10.27-5.084-13.466c-3.387-3.188-7.545-4.782-12.479-4.782    c-11.98,0-19.111,7.433-21.416,22.301H55.849z"
         id="path7"
         style="stroke:#ffffff;stroke-opacity:1;fill:#000000;fill-opacity:1" /><path
         fill="#FFFFFF"
         d="M128.908,135.679h-5.723L94.473,70.851c-2.828-6.249-5.066-10.228-6.708-11.938    c-1.645-1.712-4.341-2.634-8.091-2.764v-4.54h36.51v4.54c-4.018,0-6.765,0.331-8.242,0.987c-1.478,0.658-2.221,1.906-2.221,3.747    c0,1.45,1.316,4.969,3.945,10.56l21.81,49.041l19.638-43.712c3.089-6.972,4.634-11.512,4.634-13.62    c0-4.402-3.288-6.738-9.866-7.003v-4.54h27.237v4.54c-3.357,0.196-6.167,1.594-8.439,4.194c-2.268,2.6-5.446,8.433-9.521,17.511    L128.908,135.679z"
         id="path9"
         style="stroke:#ffffff;stroke-opacity:1;fill:#000000;fill-opacity:1" /><path
         fill="#FFFFFF"
         d="M178.463,91.868c0-12.366,4.148-22.71,12.437-31.031c8.286-8.323,18.483-12.482,30.589-12.482    c12.171,0,22.393,4.181,30.689,12.529c8.285,8.359,12.427,18.685,12.427,30.984c0,13.615-4.204,24.325-12.628,32.119    c-8.422,7.792-18.588,11.691-30.488,11.691c-11.91,0-22.055-3.96-30.44-11.891C182.658,115.863,178.463,105.222,178.463,91.868z     M194.846,92.362c0,14.338,2.333,24.388,7.006,30.145c4.67,5.757,11.214,8.634,19.637,8.634c8.614,0,15.209-2.877,19.785-8.634    c4.567-5.757,6.854-15.807,6.854-30.145c0-14.208-2.269-24.34-6.805-30.393c-4.539-6.052-11.151-9.075-19.834-9.075    c-8.624,0-15.217,3.008-19.783,9.024C197.131,67.941,194.846,78.088,194.846,92.362z"
         id="path11"
         style="stroke:#ffffff;stroke-opacity:1;fill:#000000;fill-opacity:1" /><path
         fill="#FFFFFF"
         d="M305.849,0v107.951c0,8.617,0.117,14.046,0.35,16.28c0.227,2.236,1.165,3.948,2.811,5.129    c1.646,1.187,4.569,1.778,8.781,1.778h2.368v4.54H276.94v-4.54h2.764c3.944,0,6.756-0.542,8.435-1.626    c1.676-1.089,2.679-2.618,3.009-4.589c0.33-1.974,0.494-7.632,0.494-16.973V28.025c0-8.482-0.756-13.829-2.269-16.036    c-1.517-2.2-5.199-3.304-11.053-3.304v-4.54c4.009,0,8.732-0.456,14.161-1.378c5.425-0.925,9.157-1.84,11.201-2.768H305.849z"
         id="path13"
         style="stroke:#ffffff;stroke-opacity:1;fill:#000000;fill-opacity:1" /><path
         fill="#FFFFFF"
         d="M375.45,135.679h-5.727l-28.713-64.828c-2.831-6.249-5.069-10.228-6.709-11.938    c-1.646-1.712-4.343-2.634-8.094-2.764v-4.54h36.505v4.54c-4.011,0-6.755,0.331-8.233,0.987c-1.48,0.658-2.22,1.906-2.22,3.747    c0,1.45,1.315,4.969,3.944,10.56l21.806,49.041l19.638-43.712c3.092-6.972,4.637-11.512,4.637-13.62    c0-4.402-3.287-6.738-9.868-7.003v-4.54h27.237v4.54c-3.357,0.196-6.169,1.594-8.438,4.194c-2.271,2.6-5.446,8.433-9.521,17.511    L375.45,135.679z"
         id="path15"
         style="stroke:#ffffff;stroke-opacity:1;fill:#000000;fill-opacity:1" /><path
         fill="#FFFFFF"
         d="M419.595,125.022c0-2.893,1.039-5.38,3.106-7.449c2.07-2.076,4.553-3.107,7.449-3.107    c2.957,0,5.479,1.031,7.551,3.107c2.069,2.069,3.106,4.557,3.106,7.449c0,2.96-1.053,5.478-3.156,7.548    c-2.108,2.073-4.604,3.108-7.501,3.108c-2.96,0-5.461-1.069-7.5-3.207C420.61,130.337,419.595,127.852,419.595,125.022z"
         id="path17"
         style="stroke:#ffffff;stroke-opacity:1;fill:#000000;fill-opacity:1" /></g></g></svg>