<?xml version="1.0" encoding="utf-8"?>
<!-- Generator: Adobe Illustrator 16.0.0, SVG Export Plug-In . SVG Version: 6.00 Build 0)  -->
<!DOCTYPE svg PUBLIC "-//W3C//DTD SVG 1.1//EN" "http://www.w3.org/Graphics/SVG/1.1/DTD/svg11.dtd">
<svg version="1.1" id="Layer_1" xmlns="http://www.w3.org/2000/svg" xmlns:xlink="http://www.w3.org/1999/xlink" x="0px" y="0px"
	 width="440.808px" height="219.386px" viewBox="0 0 440.808 219.386" enable-background="new 0 0 440.808 219.386"
	 xml:space="preserve">
<g>
	<g>
		<path fill="#FFFFFF" d="M135.018,216.52v2.669h-12.029v-19.674h3.176v17.005H135.018z"/>
		<path fill="#FFFFFF" d="M172.736,209.353c0,5.929-4.89,10.033-9.864,10.033c-4.835,0-9.865-4.104-9.865-10.033
			c0-5.931,5.03-10.035,9.865-10.035C167.847,199.317,172.736,203.422,172.736,209.353z M156.492,209.353
			c0,4.188,3.119,6.97,6.408,6.97c3.513,0,6.379-2.781,6.379-6.97s-2.866-6.97-6.379-6.97
			C159.611,202.383,156.492,205.164,156.492,209.353z"/>
		<path fill="#FFFFFF" d="M208.236,219.357h-0.113l-12.534-12.984v12.815h-3.177v-19.843h0.084l12.563,13.013v-12.844h3.177V219.357
			z"/>
		<path fill="#FFFFFF" d="M247.789,209.295c0,5.536-4.188,9.894-9.811,9.894h-6.406v-19.674h6.406
			C243.602,199.515,247.789,203.87,247.789,209.295z M244.613,209.295c0-3.964-2.417-7.081-6.635-7.081h-3.23v14.275h3.23
			C242.196,216.489,244.613,213.372,244.613,209.295z"/>
		<path fill="#FFFFFF" d="M285.787,209.353c0,5.929-4.892,10.033-9.864,10.033c-4.835,0-9.864-4.104-9.864-10.033
			c0-5.931,5.029-10.035,9.864-10.035C280.896,199.317,285.787,203.422,285.787,209.353z M269.541,209.353
			c0,4.188,3.119,6.97,6.407,6.97c3.515,0,6.381-2.781,6.381-6.97s-2.866-6.97-6.381-6.97
			C272.66,202.383,269.541,205.164,269.541,209.353z"/>
		<path fill="#FFFFFF" d="M320.158,219.357h-0.111l-12.534-12.984v12.815h-3.179v-19.843h0.086l12.562,13.013v-12.844h3.176V219.357
			z"/>
	</g>
	<g>
		<path fill="#FFFFFF" d="M73.117,78.944H16.774c-0.265,3.88-0.394,6.776-0.394,8.679c0,14.211,2.219,24.885,6.662,32.02
			c4.437,7.139,11.064,10.71,19.881,10.71c11.973,0,20.456-5.36,25.456-16.086h4.737c-2.107,6.71-6.283,11.957-12.529,15.739
			c-6.254,3.783-13.062,5.673-20.426,5.673c-6.842,0-13.307-1.727-19.393-5.179c-6.08-3.457-11.064-8.338-14.947-14.652
			C1.938,109.532,0,101.867,0,92.855c0-12.763,3.751-23.37,11.248-31.821c7.499-8.454,16.877-12.68,28.124-12.68
			c10.589,0,18.776,3.223,24.57,9.671C69.729,64.471,72.785,71.443,73.117,78.944z M55.849,74.998
			c0.194-1.517,0.298-2.864,0.298-4.053c0-5.781-1.695-10.27-5.084-13.466c-3.387-3.188-7.545-4.782-12.479-4.782
			c-11.98,0-19.111,7.433-21.416,22.301H55.849z"/>
		<path fill="#FFFFFF" d="M128.908,135.679h-5.723L94.473,70.851c-2.828-6.249-5.066-10.228-6.708-11.938
			c-1.645-1.712-4.341-2.634-8.091-2.764v-4.54h36.51v4.54c-4.018,0-6.765,0.331-8.242,0.987c-1.478,0.658-2.221,1.906-2.221,3.747
			c0,1.45,1.316,4.969,3.945,10.56l21.81,49.041l19.638-43.712c3.089-6.972,4.634-11.512,4.634-13.62
			c0-4.402-3.288-6.738-9.866-7.003v-4.54h27.237v4.54c-3.357,0.196-6.167,1.594-8.439,4.194c-2.268,2.6-5.446,8.433-9.521,17.511
			L128.908,135.679z"/>
		<path fill="#FFFFFF" d="M178.463,91.868c0-12.366,4.148-22.71,12.437-31.031c8.286-8.323,18.483-12.482,30.589-12.482
			c12.171,0,22.393,4.181,30.689,12.529c8.285,8.359,12.427,18.685,12.427,30.984c0,13.615-4.204,24.325-12.628,32.119
			c-8.422,7.792-18.588,11.691-30.488,11.691c-11.91,0-22.055-3.96-30.44-11.891C182.658,115.863,178.463,105.222,178.463,91.868z
			 M194.846,92.362c0,14.338,2.333,24.388,7.006,30.145c4.67,5.757,11.214,8.634,19.637,8.634c8.614,0,15.209-2.877,19.785-8.634
			c4.567-5.757,6.854-15.807,6.854-30.145c0-14.208-2.269-24.34-6.805-30.393c-4.539-6.052-11.151-9.075-19.834-9.075
			c-8.624,0-15.217,3.008-19.783,9.024C197.131,67.941,194.846,78.088,194.846,92.362z"/>
		<path fill="#FFFFFF" d="M305.849,0v107.951c0,8.617,0.117,14.046,0.35,16.28c0.227,2.236,1.165,3.948,2.811,5.129
			c1.646,1.187,4.569,1.778,8.781,1.778h2.368v4.54H276.94v-4.54h2.764c3.944,0,6.756-0.542,8.435-1.626
			c1.676-1.089,2.679-2.618,3.009-4.589c0.33-1.974,0.494-7.632,0.494-16.973V28.025c0-8.482-0.756-13.829-2.269-16.036
			c-1.517-2.2-5.199-3.304-11.053-3.304v-4.54c4.009,0,8.732-0.456,14.161-1.378c5.425-0.925,9.157-1.84,11.201-2.768H305.849z"/>
		<path fill="#FFFFFF" d="M375.45,135.679h-5.727l-28.713-64.828c-2.831-6.249-5.069-10.228-6.709-11.938
			c-1.646-1.712-4.343-2.634-8.094-2.764v-4.54h36.505v4.54c-4.011,0-6.755,0.331-8.233,0.987c-1.48,0.658-2.22,1.906-2.22,3.747
			c0,1.45,1.315,4.969,3.944,10.56l21.806,49.041l19.638-43.712c3.092-6.972,4.637-11.512,4.637-13.62
			c0-4.402-3.287-6.738-9.868-7.003v-4.54h27.237v4.54c-3.357,0.196-6.169,1.594-8.438,4.194c-2.271,2.6-5.446,8.433-9.521,17.511
			L375.45,135.679z"/>
		<path fill="#FFFFFF" d="M419.595,125.022c0-2.893,1.039-5.38,3.106-7.449c2.07-2.076,4.553-3.107,7.449-3.107
			c2.957,0,5.479,1.031,7.551,3.107c2.069,2.069,3.106,4.557,3.106,7.449c0,2.96-1.053,5.478-3.156,7.548
			c-2.108,2.073-4.604,3.108-7.501,3.108c-2.96,0-5.461-1.069-7.5-3.207C420.61,130.337,419.595,127.852,419.595,125.022z"/>
	</g>
</g>
</svg>
