<svg xmlns="http://www.w3.org/2000/svg" width="440.808" height="135.679" viewBox="0 0 440.808 135.679"><path d="M73.117 78.944H16.774c-.265 3.88-.394 6.776-.394 8.679 0 14.211 2.219 24.885 6.662 32.02 4.437 7.139 11.064 10.71 19.881 10.71 11.973 0 20.456-5.36 25.456-16.086h4.737c-2.107 6.71-6.283 11.957-12.529 15.739-6.254 3.783-13.062 5.673-20.426 5.673-6.842 0-13.307-1.727-19.393-5.179-6.08-3.457-11.064-8.338-14.947-14.652C1.938 109.532 0 101.867 0 92.855c0-12.763 3.751-23.37 11.248-31.821 7.499-8.454 16.877-12.68 28.124-12.68 10.589 0 18.776 3.223 24.57 9.671 5.787 6.446 8.843 13.418 9.175 20.919zm-17.268-3.946c.194-1.517.298-2.864.298-4.053 0-5.781-1.695-10.27-5.084-13.466-3.387-3.188-7.545-4.782-12.479-4.782-11.98 0-19.111 7.433-21.416 22.301h38.681zm73.059 60.681h-5.723L94.473 70.851c-2.828-6.249-5.066-10.228-6.708-11.938-1.645-1.712-4.341-2.634-8.091-2.764v-4.54h36.51v4.54c-4.018 0-6.765.331-8.242.987-1.478.658-2.221 1.906-2.221 3.747 0 1.45 1.316 4.969 3.945 10.56l21.81 49.041 19.638-43.712c3.089-6.972 4.634-11.512 4.634-13.62 0-4.402-3.288-6.738-9.866-7.003v-4.54h27.237v4.54c-3.357.196-6.167 1.594-8.439 4.194-2.268 2.6-5.446 8.433-9.521 17.511l-26.251 57.825zm49.555-43.811c0-12.366 4.148-22.71 12.437-31.031 8.286-8.323 18.483-12.482 30.589-12.482 12.171 0 22.393 4.181 30.689 12.529 8.285 8.359 12.427 18.685 12.427 30.984 0 13.615-4.204 24.325-12.628 32.119-8.422 7.792-18.588 11.691-30.488 11.691-11.91 0-22.055-3.96-30.44-11.891-8.391-7.924-12.586-18.565-12.586-31.919zm16.383.494c0 14.338 2.333 24.388 7.006 30.145 4.67 5.757 11.214 8.634 19.637 8.634 8.614 0 15.209-2.877 19.785-8.634 4.567-5.757 6.854-15.807 6.854-30.145 0-14.208-2.269-24.34-6.805-30.393-4.539-6.052-11.151-9.075-19.834-9.075-8.624 0-15.217 3.008-19.783 9.024-4.575 6.023-6.86 16.17-6.86 30.444zM305.849 0v107.951c0 8.617.117 14.046.35 16.28.227 2.236 1.165 3.948 2.811 5.129 1.646 1.187 4.569 1.778 8.781 1.778h2.368v4.54H276.94v-4.54h2.764c3.944 0 6.756-.542 8.435-1.626 1.676-1.089 2.679-2.618 3.009-4.589.33-1.974.494-7.632.494-16.973V28.025c0-8.482-.756-13.829-2.269-16.036-1.517-2.2-5.199-3.304-11.053-3.304v-4.54c4.009 0 8.732-.456 14.161-1.378 5.425-.925 9.157-1.84 11.201-2.768h2.167zm69.601 135.679h-5.727L341.01 70.851c-2.831-6.249-5.069-10.228-6.709-11.938-1.646-1.712-4.343-2.634-8.094-2.764v-4.54h36.505v4.54c-4.011 0-6.755.331-8.233.987-1.48.658-2.22 1.906-2.22 3.747 0 1.45 1.315 4.969 3.944 10.56l21.806 49.041 19.638-43.712c3.092-6.972 4.637-11.512 4.637-13.62 0-4.402-3.287-6.738-9.868-7.003v-4.54h27.237v4.54c-3.357.196-6.169 1.594-8.438 4.194-2.271 2.6-5.446 8.433-9.521 17.511l-26.244 57.825zm44.145-10.657c0-2.893 1.039-5.38 3.106-7.449 2.07-2.076 4.553-3.107 7.449-3.107 2.957 0 5.479 1.031 7.551 3.107 2.069 2.069 3.106 4.557 3.106 7.449 0 2.96-1.053 5.478-3.156 7.548-2.108 2.073-4.604 3.108-7.501 3.108-2.96 0-5.461-1.069-7.5-3.207-2.04-2.134-3.055-4.619-3.055-7.449z" fill="#FFF"/></svg>