<?xml version="1.0" encoding="UTF-8" standalone="no"?>
<!-- Generator: Adobe Illustrator 16.0.0, SVG Export Plug-In . SVG Version: 6.00 Build 0)  -->

<svg
   xmlns:dc="http://purl.org/dc/elements/1.1/"
   xmlns:cc="http://creativecommons.org/ns#"
   xmlns:rdf="http://www.w3.org/1999/02/22-rdf-syntax-ns#"
   xmlns:svg="http://www.w3.org/2000/svg"
   xmlns="http://www.w3.org/2000/svg"
   xmlns:sodipodi="http://sodipodi.sourceforge.net/DTD/sodipodi-0.dtd"
   xmlns:inkscape="http://www.inkscape.org/namespaces/inkscape"
   version="1.1"
   id="Layer_1"
   x="0px"
   y="0px"
   width="31.429001"
   height="51.52"
   viewBox="0 0 31.429 51.520002"
   enable-background="new 0 0 31.429 43.516"
   xml:space="preserve"
   inkscape:version="0.48.4 r9939"
   sodipodi:docname="marker.svg"><metadata
     id="metadata15"><rdf:RDF><cc:Work
         rdf:about=""><dc:format>image/svg+xml</dc:format><dc:type
           rdf:resource="http://purl.org/dc/dcmitype/StillImage" /></cc:Work></rdf:RDF></metadata><defs
     id="defs13" /><sodipodi:namedview
     pagecolor="#ffffff"
     bordercolor="#666666"
     borderopacity="1"
     objecttolerance="10"
     gridtolerance="10"
     guidetolerance="10"
     inkscape:pageopacity="0"
     inkscape:pageshadow="2"
     inkscape:window-width="640"
     inkscape:window-height="480"
     id="namedview11"
     showgrid="false"
     inkscape:zoom="5.4232927"
     inkscape:cx="15.7145"
     inkscape:cy="21.757999"
     inkscape:window-x="439"
     inkscape:window-y="206"
     inkscape:window-maximized="0"
     inkscape:current-layer="Layer_1" /><g
     id="g3"
     transform="translate(0,8.0039974)"><g
       id="g5"><path
         d="M 15.733,1.207 C 7.737,1.207 1.231,8.1 1.231,16.578 c 0,3.23 0.947,6.322 2.739,8.954 L 4.348,26.1 14.766,41.676 c 0.229,0.331 0.591,0.517 0.968,0.517 0.373,0 0.737,-0.186 0.965,-0.517 l 10.283,-15.388 0.51,-0.744 c 1.799,-2.645 2.74,-5.736 2.74,-8.967 C 30.231,8.1 23.729,1.207 15.733,1.207 l 0,0 z"
         id="path7"
         inkscape:connector-curvature="0"
         style="fill:#ff742f" /><path
         d="m 15.733,43.193 c -0.709,0 -1.378,-0.354 -1.79,-0.947 L 3.137,26.084 C 1.239,23.296 0.231,20.005 0.231,16.577 0.231,7.55 7.185,0.206 15.733,0.206 c 8.546,0 15.498,7.344 15.498,16.371 0,3.432 -1.008,6.728 -2.913,9.529 l -0.512,0.747 -10.277,15.379 c -0.416,0.605 -1.084,0.961 -1.796,0.961 z m 0,-40.986 c -7.445,0 -13.502,6.447 -13.502,14.371 0,3.024 0.887,5.926 2.566,8.392 l 0.384,0.578 10.416,15.573 c 0.057,0.081 0.203,0.096 0.277,-0.011 L 26.666,24.979 c 1.678,-2.466 2.565,-5.372 2.565,-8.401 0,-7.925 -6.055,-14.371 -13.498,-14.371 z"
         id="path9"
         inkscape:connector-curvature="0"
         style="fill:#ffffff" /></g></g></svg>