<svg xmlns="http://www.w3.org/2000/svg" width="31.429" height="51.52" viewBox="0 0 31.429 51.520002"><path d="M15.733 9.211c-7.996 0-14.502 6.893-14.502 15.371 0 3.23.947 6.322 2.739 8.954l.378.568L14.766 49.68c.229.331.591.517.968.517.373 0 .737-.186.965-.517l10.283-15.388.51-.744c1.799-2.645 2.74-5.736 2.74-8.967-.001-8.477-6.503-15.37-14.499-15.37z" fill="#ff742f"/><path d="M15.733 51.197a2.186 2.186 0 0 1-1.79-.947L3.137 34.088C1.239 31.3.231 28.009.231 24.581c0-9.027 6.954-16.371 15.502-16.371 8.546 0 15.498 7.344 15.498 16.371 0 3.432-1.008 6.728-2.913 9.529l-.512.747-10.277 15.379a2.18 2.18 0 0 1-1.796.961zm0-40.986c-7.445 0-13.502 6.447-13.502 14.371 0 3.024.887 5.926 2.566 8.392l.384.578 10.416 15.573c.057.081.203.096.277-.011l10.792-16.131c1.678-2.466 2.565-5.372 2.565-8.401 0-7.925-6.055-14.371-13.498-14.371z" fill="#fff"/></svg>