<?xml version="1.0" encoding="UTF-8" standalone="no"?>
<!-- Created with Inkscape (http://www.inkscape.org/) -->

<svg
   xmlns:dc="http://purl.org/dc/elements/1.1/"
   xmlns:cc="http://creativecommons.org/ns#"
   xmlns:rdf="http://www.w3.org/1999/02/22-rdf-syntax-ns#"
   xmlns:svg="http://www.w3.org/2000/svg"
   xmlns="http://www.w3.org/2000/svg"
   xmlns:sodipodi="http://sodipodi.sourceforge.net/DTD/sodipodi-0.dtd"
   xmlns:inkscape="http://www.inkscape.org/namespaces/inkscape"
   width="297mm"
   height="210mm"
   viewBox="0 0 1052.3622 744.09448"
   id="svg2"
   version="1.1"
   inkscape:version="0.91 r13725"
   sodipodi:docname="property-placeholder.svg">
  <defs
     id="defs4" />
  <sodipodi:namedview
     id="base"
     pagecolor="#ffffff"
     bordercolor="#666666"
     borderopacity="1.0"
     inkscape:pageopacity="0.0"
     inkscape:pageshadow="2"
     inkscape:zoom="0.35"
     inkscape:cx="-27.857143"
     inkscape:cy="514.28571"
     inkscape:document-units="px"
     inkscape:current-layer="layer1"
     showgrid="false"
     inkscape:window-width="1920"
     inkscape:window-height="1031"
     inkscape:window-x="0"
     inkscape:window-y="25"
     inkscape:window-maximized="1" />
  <metadata
     id="metadata7">
    <rdf:RDF>
      <cc:Work
         rdf:about="">
        <dc:format>image/svg+xml</dc:format>
        <dc:type
           rdf:resource="http://purl.org/dc/dcmitype/StillImage" />
        <dc:title></dc:title>
      </cc:Work>
    </rdf:RDF>
  </metadata>
  <g
     inkscape:label="Layer 1"
     inkscape:groupmode="layer"
     id="layer1"
     transform="translate(0,-308.26772)">
    <rect
       style="fill:#fafafa;fill-opacity:1;stroke:none;stroke-opacity:1"
       id="rect4136"
       width="1322.8572"
       height="742.85712"
       x="-134.28568"
       y="312.36221" />
    <g
       id="g4211"
       transform="matrix(1.1231508,0,0,1.1231508,279.59652,550.58955)"
       style="fill:#7d7d7d;fill-opacity:1">
      <g
         id="g4213"
         style="fill:#7d7d7d;fill-opacity:1">
        <path
           id="path4215"
           d="m 135.018,216.52 0,2.669 -12.029,0 0,-19.674 3.176,0 0,17.005 8.853,0 z"
           inkscape:connector-curvature="0"
           style="fill:#7d7d7d;fill-opacity:1" />
        <path
           id="path4217"
           d="m 172.736,209.353 c 0,5.929 -4.89,10.033 -9.864,10.033 -4.835,0 -9.865,-4.104 -9.865,-10.033 0,-5.931 5.03,-10.035 9.865,-10.035 4.975,-0.001 9.864,4.104 9.864,10.035 z m -16.244,0 c 0,4.188 3.119,6.97 6.408,6.97 3.513,0 6.379,-2.781 6.379,-6.97 0,-4.189 -2.866,-6.97 -6.379,-6.97 -3.289,0 -6.408,2.781 -6.408,6.97 z"
           inkscape:connector-curvature="0"
           style="fill:#7d7d7d;fill-opacity:1" />
        <path
           id="path4219"
           d="m 208.236,219.357 -0.113,0 -12.534,-12.984 0,12.815 -3.177,0 0,-19.843 0.084,0 12.563,13.013 0,-12.844 3.177,0 0,19.843 z"
           inkscape:connector-curvature="0"
           style="fill:#7d7d7d;fill-opacity:1" />
        <path
           id="path4221"
           d="m 247.789,209.295 c 0,5.536 -4.188,9.894 -9.811,9.894 l -6.406,0 0,-19.674 6.406,0 c 5.624,0 9.811,4.355 9.811,9.78 z m -3.176,0 c 0,-3.964 -2.417,-7.081 -6.635,-7.081 l -3.23,0 0,14.275 3.23,0 c 4.218,0 6.635,-3.117 6.635,-7.194 z"
           inkscape:connector-curvature="0"
           style="fill:#7d7d7d;fill-opacity:1" />
        <path
           id="path4223"
           d="m 285.787,209.353 c 0,5.929 -4.892,10.033 -9.864,10.033 -4.835,0 -9.864,-4.104 -9.864,-10.033 0,-5.931 5.029,-10.035 9.864,-10.035 4.973,-0.001 9.864,4.104 9.864,10.035 z m -16.246,0 c 0,4.188 3.119,6.97 6.407,6.97 3.515,0 6.381,-2.781 6.381,-6.97 0,-4.189 -2.866,-6.97 -6.381,-6.97 -3.288,0 -6.407,2.781 -6.407,6.97 z"
           inkscape:connector-curvature="0"
           style="fill:#7d7d7d;fill-opacity:1" />
        <path
           id="path4225"
           d="m 320.158,219.357 -0.111,0 -12.534,-12.984 0,12.815 -3.179,0 0,-19.843 0.086,0 12.562,13.013 0,-12.844 3.176,0 0,19.843 z"
           inkscape:connector-curvature="0"
           style="fill:#7d7d7d;fill-opacity:1" />
      </g>
      <g
         id="g4227"
         style="fill:#7d7d7d;fill-opacity:1">
        <path
           id="path4229"
           d="m 73.117,78.944 -56.343,0 c -0.265,3.88 -0.394,6.776 -0.394,8.679 0,14.211 2.219,24.885 6.662,32.02 4.437,7.139 11.064,10.71 19.881,10.71 11.973,0 20.456,-5.36 25.456,-16.086 l 4.737,0 c -2.107,6.71 -6.283,11.957 -12.529,15.739 -6.254,3.783 -13.062,5.673 -20.426,5.673 -6.842,0 -13.307,-1.727 -19.393,-5.179 C 14.688,127.043 9.704,122.162 5.821,115.848 1.938,109.532 0,101.867 0,92.855 0,80.092 3.751,69.485 11.248,61.034 c 7.499,-8.454 16.877,-12.68 28.124,-12.68 10.589,0 18.776,3.223 24.57,9.671 5.787,6.446 8.843,13.418 9.175,20.919 z M 55.849,74.998 c 0.194,-1.517 0.298,-2.864 0.298,-4.053 0,-5.781 -1.695,-10.27 -5.084,-13.466 -3.387,-3.188 -7.545,-4.782 -12.479,-4.782 -11.98,0 -19.111,7.433 -21.416,22.301 l 38.681,0 z"
           inkscape:connector-curvature="0"
           style="fill:#7d7d7d;fill-opacity:1" />
        <path
           id="path4231"
           d="m 128.908,135.679 -5.723,0 L 94.473,70.851 C 91.645,64.602 89.407,60.623 87.765,58.913 86.12,57.201 83.424,56.279 79.674,56.149 l 0,-4.54 36.51,0 0,4.54 c -4.018,0 -6.765,0.331 -8.242,0.987 -1.478,0.658 -2.221,1.906 -2.221,3.747 0,1.45 1.316,4.969 3.945,10.56 l 21.81,49.041 19.638,-43.712 c 3.089,-6.972 4.634,-11.512 4.634,-13.62 0,-4.402 -3.288,-6.738 -9.866,-7.003 l 0,-4.54 27.237,0 0,4.54 c -3.357,0.196 -6.167,1.594 -8.439,4.194 -2.268,2.6 -5.446,8.433 -9.521,17.511 l -26.251,57.825 z"
           inkscape:connector-curvature="0"
           style="fill:#7d7d7d;fill-opacity:1" />
        <path
           id="path4233"
           d="m 178.463,91.868 c 0,-12.366 4.148,-22.71 12.437,-31.031 8.286,-8.323 18.483,-12.482 30.589,-12.482 12.171,0 22.393,4.181 30.689,12.529 8.285,8.359 12.427,18.685 12.427,30.984 0,13.615 -4.204,24.325 -12.628,32.119 -8.422,7.792 -18.588,11.691 -30.488,11.691 -11.91,0 -22.055,-3.96 -30.44,-11.891 -8.391,-7.924 -12.586,-18.565 -12.586,-31.919 z m 16.383,0.494 c 0,14.338 2.333,24.388 7.006,30.145 4.67,5.757 11.214,8.634 19.637,8.634 8.614,0 15.209,-2.877 19.785,-8.634 4.567,-5.757 6.854,-15.807 6.854,-30.145 0,-14.208 -2.269,-24.34 -6.805,-30.393 -4.539,-6.052 -11.151,-9.075 -19.834,-9.075 -8.624,0 -15.217,3.008 -19.783,9.024 -4.575,6.023 -6.86,16.17 -6.86,30.444 z"
           inkscape:connector-curvature="0"
           style="fill:#7d7d7d;fill-opacity:1" />
        <path
           id="path4235"
           d="m 305.849,0 0,107.951 c 0,8.617 0.117,14.046 0.35,16.28 0.227,2.236 1.165,3.948 2.811,5.129 1.646,1.187 4.569,1.778 8.781,1.778 l 2.368,0 0,4.54 -43.219,0 0,-4.54 2.764,0 c 3.944,0 6.756,-0.542 8.435,-1.626 1.676,-1.089 2.679,-2.618 3.009,-4.589 0.33,-1.974 0.494,-7.632 0.494,-16.973 l 0,-79.925 c 0,-8.482 -0.756,-13.829 -2.269,-16.036 -1.517,-2.2 -5.199,-3.304 -11.053,-3.304 l 0,-4.54 c 4.009,0 8.732,-0.456 14.161,-1.378 5.425,-0.925 9.157,-1.84 11.201,-2.768 l 2.167,0 z"
           inkscape:connector-curvature="0"
           style="fill:#7d7d7d;fill-opacity:1" />
        <path
           id="path4237"
           d="m 375.45,135.679 -5.727,0 -28.713,-64.828 c -2.831,-6.249 -5.069,-10.228 -6.709,-11.938 -1.646,-1.712 -4.343,-2.634 -8.094,-2.764 l 0,-4.54 36.505,0 0,4.54 c -4.011,0 -6.755,0.331 -8.233,0.987 -1.48,0.658 -2.22,1.906 -2.22,3.747 0,1.45 1.315,4.969 3.944,10.56 l 21.806,49.041 19.638,-43.712 c 3.092,-6.972 4.637,-11.512 4.637,-13.62 0,-4.402 -3.287,-6.738 -9.868,-7.003 l 0,-4.54 27.237,0 0,4.54 c -3.357,0.196 -6.169,1.594 -8.438,4.194 -2.271,2.6 -5.446,8.433 -9.521,17.511 l -26.244,57.825 z"
           inkscape:connector-curvature="0"
           style="fill:#7d7d7d;fill-opacity:1" />
        <path
           id="path4239"
           d="m 419.595,125.022 c 0,-2.893 1.039,-5.38 3.106,-7.449 2.07,-2.076 4.553,-3.107 7.449,-3.107 2.957,0 5.479,1.031 7.551,3.107 2.069,2.069 3.106,4.557 3.106,7.449 0,2.96 -1.053,5.478 -3.156,7.548 -2.108,2.073 -4.604,3.108 -7.501,3.108 -2.96,0 -5.461,-1.069 -7.5,-3.207 -2.04,-2.134 -3.055,-4.619 -3.055,-7.449 z"
           inkscape:connector-curvature="0"
           style="fill:#7d7d7d;fill-opacity:1" />
      </g>
    </g>
  </g>
</svg>
