<svg xmlns="http://www.w3.org/2000/svg" width="297mm" height="210mm" viewBox="0 0 1052.3622 744.09448"><path fill="#fafafa" d="M-134.286 4.094h1322.857v742.857H-134.286z"/><path d="M431.242 485.506v2.998h-13.51v-22.097h3.567v19.1h9.943zm42.363-8.049c0 6.659-5.492 11.268-11.079 11.268-5.43 0-11.08-4.609-11.08-11.268 0-6.662 5.65-11.271 11.08-11.271 5.588-.001 11.08 4.61 11.08 11.27zm-18.244 0c0 4.704 3.503 7.828 7.197 7.828 3.945 0 7.164-3.123 7.164-7.828s-3.219-7.829-7.164-7.829c-3.694 0-7.197 3.124-7.197 7.829zm58.116 11.236h-.127l-14.078-14.583v14.393h-3.568v-22.287h.095l14.11 14.616v-14.426h3.568v22.287zm44.423-11.301c0 6.217-4.703 11.112-11.018 11.112h-7.195v-22.097h7.195c6.316 0 11.019 4.892 11.019 10.985zm-3.566 0c0-4.452-2.715-7.953-7.452-7.953h-3.628v16.033h3.628c4.737 0 7.452-3.501 7.452-8.08zm46.244.065c0 6.659-5.494 11.268-11.078 11.268-5.43 0-11.08-4.609-11.08-11.268 0-6.662 5.65-11.271 11.08-11.271 5.585-.001 11.078 4.61 11.078 11.27zm-18.246 0c0 4.704 3.503 7.828 7.196 7.828 3.948 0 7.167-3.123 7.167-7.828s-3.22-7.829-7.167-7.829c-3.693 0-7.196 3.124-7.196 7.829zm56.85 11.236h-.124L624.98 474.11v14.393h-3.57v-22.287h.096l14.11 14.616v-14.426h3.566v22.287zM361.718 330.988h-63.282c-.297 4.358-.442 7.61-.442 9.748 0 15.96 2.492 27.95 7.482 35.963 4.984 8.018 12.427 12.029 22.33 12.029 13.447 0 22.975-6.02 28.59-18.067h5.32c-2.366 7.536-7.056 13.43-14.071 17.677-7.024 4.25-14.67 6.372-22.942 6.372-7.684 0-14.945-1.94-21.78-5.817-6.83-3.883-12.427-9.365-16.789-16.456-4.36-7.094-6.537-15.703-6.537-25.825 0-14.335 4.212-26.248 12.633-35.74 8.422-9.495 18.955-14.241 31.587-14.241 11.893 0 21.088 3.62 27.596 10.862 6.5 7.24 9.932 15.07 10.305 23.495zm-19.395-4.432c.218-1.704.335-3.217.335-4.552 0-6.493-1.904-11.535-5.71-15.125-3.804-3.58-8.474-5.37-14.016-5.37-13.455 0-21.464 8.348-24.053 25.047h43.444zm82.057 68.154h-6.428l-32.248-72.812c-3.176-7.018-5.69-11.487-7.534-13.408-1.848-1.923-4.876-2.958-9.088-3.104v-5.1h41.007v5.1c-4.513 0-7.598.371-9.257 1.108-1.66.74-2.495 2.14-2.495 4.209 0 1.628 1.478 5.58 4.431 11.86l24.496 55.08 22.056-49.095c3.47-7.83 5.205-12.93 5.205-15.297 0-4.944-3.693-7.568-11.081-7.865v-5.1h30.591v5.1c-3.77.22-6.926 1.79-9.478 4.71-2.547 2.92-6.117 9.472-10.694 19.668L424.38 394.71zm55.657-49.207c0-13.888 4.66-25.506 13.969-34.852 9.306-9.348 20.76-14.02 34.356-14.02 13.67 0 25.15 4.697 34.468 14.073 9.306 9.388 13.958 20.986 13.958 34.8 0 15.291-4.722 27.32-14.183 36.074-9.46 8.752-20.877 13.13-34.243 13.13-13.377 0-24.771-4.447-34.189-13.355-9.424-8.9-14.136-20.851-14.136-35.85zm18.401.555c0 16.104 2.62 27.392 7.869 33.858 5.245 6.466 12.595 9.697 22.055 9.697 9.675 0 17.082-3.231 22.222-9.697 5.129-6.466 7.698-17.754 7.698-33.858 0-15.957-2.549-27.337-7.643-34.136-5.098-6.797-12.525-10.192-22.277-10.192-9.686 0-17.09 3.378-22.22 10.135-5.138 6.765-7.704 18.161-7.704 34.193zm124.673-103.736v121.245c0 9.678.131 15.776.393 18.285.255 2.511 1.309 4.434 3.157 5.76 1.85 1.334 5.132 1.998 9.863 1.998h2.66v5.099h-48.542v-5.1h3.104c4.43 0 7.588-.608 9.474-1.826 1.882-1.223 3.009-2.94 3.38-5.154.37-2.217.554-8.572.554-19.063v-89.768c0-9.526-.849-15.532-2.548-18.01-1.704-2.472-5.84-3.712-12.414-3.712v-5.099c4.503 0 9.807-.512 15.905-1.547 6.093-1.04 10.284-2.067 12.58-3.11h2.434zm78.172 152.388h-6.432l-32.249-72.812c-3.18-7.018-5.693-11.487-7.535-13.408-1.849-1.923-4.878-2.958-9.09-3.104v-5.1h41v5.1c-4.505 0-7.587.371-9.247 1.108-1.662.74-2.494 2.14-2.494 4.209 0 1.628 1.477 5.58 4.43 11.86l24.492 55.08 22.056-49.095c3.473-7.83 5.208-12.93 5.208-15.297 0-4.944-3.692-7.568-11.083-7.865v-5.1h30.591v5.1c-3.77.22-6.929 1.79-9.477 4.71-2.55 2.92-6.117 9.472-10.694 19.668l-29.476 64.946zm49.582-11.97c0-3.249 1.167-6.042 3.488-8.366 2.325-2.332 5.114-3.49 8.367-3.49 3.321 0 6.154 1.158 8.48 3.49 2.325 2.324 3.49 5.118 3.49 8.366 0 3.325-1.183 6.153-3.545 8.478-2.368 2.328-5.171 3.49-8.425 3.49-3.325 0-6.134-1.2-8.424-3.601-2.291-2.397-3.431-5.188-3.431-8.367z" fill="#7d7d7d"/></svg>